<svg height="16" viewBox="0 -960 640 640" width="16" xmlns="http://www.w3.org/2000/svg"><path d="m539.13043-748.75363q-21.91304 21.91304-50.31884 33.27536-28.40579 11.36233-56.81159 11.36233-28.4058 0-56-10.95652-27.5942-10.95652-49.50725-33.68116l-60.86956-60.86956q-12.17392-12.17392-27.59421-18.26087-15.42029-6.08696-31.65217-6.08696-16.23188 0-31.65217 6.08696-15.42029 6.08695-27.59421 18.26087l-60.86956 60.86955-46.26087-46.26086 60.86957-60.86956q21.91304-21.91305 49.50724-32.86957 27.5942-10.95652 56-10.95652 28.4058 0 55.5942 10.95652 27.18841 10.95652 49.10145 32.86957l60.86957 60.86956q12.9855 12.9855 28.40579 19.07246 15.42029 6.08695 31.65218 6.08695 16.23188 0 32.05797-6.08695 15.82609-6.08696 28.81159-19.07246l60.86957-60.86956 46.26087 46.26086zm0 162.31884q-21.91304 21.91305-49.91304 32.86957-28 10.95653-56.4058 10.95653-28.40579 0-56.40579-10.95653-28-10.95652-49.91305-32.86957l-60.86956-60.86955q-12.17392-12.17392-27.59421-18.26087-15.42029-6.08696-31.65217-6.08696-16.23188 0-31.65217 6.08696-15.42029 6.08695-27.59421 18.26087l-60.86956 60.86955-46.26087-45.44926 60.86957-61.68116q21.91304-21.91305 49.50724-32.86957 27.5942-10.95652 56-10.95652 28.4058 0 55.5942 10.95652 27.18841 10.95652 49.10145 32.86957l60.86957 60.86956q12.9855 12.98551 28.40579 19.07246 15.42029 6.08695 31.65218 6.08695 16.23188 0 32.05797-6.08695 15.82609-6.08695 28.81159-19.07246l60.86957-60.86956 46.26087 46.26087zm-.81159 162.31885q-21.91304 21.91304-49.50725 32.86957-27.5942 10.95652-56 10.95652-28.40579 0-56.40579-10.95652-28-10.95653-49.91305-32.86957l-61.68116-60.86956q-12.17391-12.17392-27.5942-18.26087-15.42029-6.08696-31.65217-6.08696-16.23189 0-31.65218 6.08696-15.42029 6.08695-27.5942 18.26087l-60.86956 60.86956-45.44928-45.44928 60.86957-61.68115q21.91304-21.91306 49.50724-32.86957 27.5942-10.95652 56-10.95652 28.4058 0 55.5942 10.95652 27.18841 10.95651 49.10145 32.86957l60.86957 60.86955q12.9855 12.98551 28.81159 19.07248 15.82609 6.08695 32.05797 6.08695 16.23189 0 31.65218-6.08695 15.42029-6.08696 28.40579-19.07248l60.86957-60.86955 45.44927 46.26087z" fill="#45ffa2" stroke-width=".999998"/></svg>