<svg height="16" viewBox="0 0 16 16" width="16" xmlns="http://www.w3.org/2000/svg"><path d="m5.2000001 15h-4.2v-4.289744q.7897436-.08974 1.3517539-.61923.5620281-.5294876.5620281-1.3012825 0-.7717948-.5620281-1.3012819-.5620103-.5294871-1.3517539-.6192307v-4.2358975h4.2358974q.1974359-.7179487.6820514-1.175641.484615-.4576923 1.19359-.4576923.708974 0 1.265384.4576923.55641.4576922.753846 1.1836641h4.2358981v4.2278743q.717949.1974359 1.175641.7538461.457692.5564102.457692 1.2653846 0 .7089743-.457692 1.1935895-.457692.484616-1.175641.682051v4.235898h-4.2000001q-.089744-.861539-.682051-1.391026-.592308-.529487-1.364103-.529487-.682051 0-1.25641.529487-.5743593.529487-.6641028 1.391026z" fill="#45ffa2" stroke-width=".05"/></svg>