<svg height="16" viewBox="0 0 16 16" width="16" xmlns="http://www.w3.org/2000/svg"><path d="m8.001482 15q-1.451391 0-2.727927-.551212-1.276537-.551212-2.22405-1.497328-.947512-.946134-1.498517-2.22236-.550988-1.2762266-.550988-2.7272729 0-1.4510634.550988-2.7269968.551005-1.2759506 1.498517-2.2221015.947513-.9461682 2.224532-1.4994484 1.277002-.5532803 2.728962-.5532803 1.451943 0 2.726549.5532803 1.274606.5532802 2.221309 1.4985176.946702.9452373 1.497914 2.2218774.551229 1.2766402.551229 2.7281689 0 1.451529-.550833 2.7279277-.550815 1.276399-1.498017 2.222912-.94722.946495-2.223481 1.496914-1.276278.550402-2.726187.550402zm-.736512-1.191609v-1.409332q-.603302 0-1.012945-.445755-.409625-.445737-.409625-1.045644v-.754318l-3.508774-3.508894q-.08619.3447444-.12066.6767504-.03448.3320059-.03448.6744405 0 2.2252901 1.446255 3.8918021 1.446237 1.666511 3.640224 1.92095zm5.034768-1.84926q.375099-.409574.657445-.87291.282363-.463354.478522-.969784.196177-.5064291.290982-1.0380767.0948-.5316303.0948-1.0845313 0-1.8100629-.991519-3.2910675-.991519-1.4810218-2.651153-2.1663908v.3061502q0 .5982004-.414297 1.0427311-.414313.4445478-1.012445.4445478h-1.487107v1.4901576q0 .2942565-.232702.4818147-.232702.1875409-.526959.1875409h-1.417089v1.504516h4.41914q.291292 0 .481367.2246699.190092.2246699.190092.5155135v2.1736476h.732944q.495759 0 .873254.293033.377478.293033.514721.758437z" fill="#45ffa2" stroke-width=".05"/></svg>