<svg height="16" viewBox="0 0 16 16" width="16" xmlns="http://www.w3.org/2000/svg"><path d="m5.1999994 15h-4.19999995v-4.289743q.78974205-.08974 1.35175295-.61923.5620281-.5294871.5620281-1.3012841 0-.771794-.5620281-1.301281-.562011-.5294871-1.35175295-.6192318v-4.2358964h4.23589795q.197447-.7179481.682052-1.1756408.484613-.4576928 1.193589-.4576928.708974 0 1.265383.4576928.556412.4576927.753847 1.1836651h4.2358996v4.2278721q.717948.1974467 1.175641.7538465.457692.5564113.457692 1.2653853 0 .708974-.457692 1.1935891-.457693.484617-1.175641.682052v4.235897h-4.2000016q-.08974-.861539-.682052-1.391026-.592307-.529485-1.364102-.529485-.6820519 0-1.256409.529485-.574362.529487-.664104 1.391026z" fill="#e0e0e0" stroke-width=".05"/></svg>