<svg xmlns="http://www.w3.org/2000/svg" width="16" height="16"><path fill="#45ffa2" d="M8.001 15q-1.45 0-2.727-.551T3.05 12.95q-.948-.946-1.499-2.222Q1 9.453 1 8.002q0-1.451.551-2.727.551-1.276 1.499-2.222.947-.946 2.224-1.5Q6.551 1 8.003 1q1.452 0 2.727.553 1.274.554 2.22 1.499.948.945 1.499 2.222Q15 6.55 15 8.002q0 1.451-.55 2.728-.552 1.276-1.499 2.223-.947.946-2.223 1.497Q9.45 15 8 15zm-.736-1.192V12.4q-.603 0-1.013-.446-.41-.445-.41-1.045v-.755L2.334 6.644q-.087.345-.121.677-.035.332-.035.675 0 2.225 1.447 3.891 1.446 1.667 3.64 1.921zM12.3 11.96q.375-.41.657-.873.283-.463.479-.97.196-.506.29-1.038.095-.531.095-1.084 0-1.81-.991-3.291-.992-1.481-2.651-2.167v.307q0 .598-.414 1.042-.415.445-1.013.445H7.265v1.49q0 .294-.233.482-.232.187-.527.187H5.088v1.505h4.42q.29 0 .48.224.19.225.19.516v2.174h.734q.496 0 .873.293t.515.758z"/></svg>