<svg xmlns="http://www.w3.org/2000/svg" xml:space="preserve" width="16" height="16"><path d="M3 10.043v-.055h-.041l.041.055z" style="fill:#e0e0e0;fill-opacity:1"/><path d="M1 1v13a1 1 0 0 0 1 1h4.719l-1.5-2H3v-2.957l-.041-.055H3V7h2v2.988h.621A5.603 5.603 0 0 1 7 7.205V7h.2a5.288 5.288 0 0 1 1.673-1.111 5.57 5.57 0 0 1 3.082-.338A5.447 5.447 0 0 1 14.797 7H15V5H3V3h12V1H1z" style="fill:#e0e0e0;fill-opacity:1"/><path fill="#e0e0e0" d="M6.466 10.988a4.518 4.518 0 1 1 4.518 4.518V14a3.012 3.012 0 1 0-3.012-3.012h1.506L7.218 14 4.96 10.988Z" style="stroke-width:.753078"/><path d="M6.466 10.988a4.518 4.518 0 1 1 4.518 4.518V14a3.012 3.012 0 1 0-3.012-3.012h1.506L7.218 14 4.96 10.988Z" style="fill:#e0e0e0"/></svg>