<svg xmlns="http://www.w3.org/2000/svg" xml:space="preserve" width="16" height="16"><path d="M2 12v2h2v-2H2zM2 7v2h2V7H2z" style="fill:#e0e0e0;fill-opacity:1"/><path d="m6.969 12 .25.332.25-.332h-.5z"/><path d="M7.2 7H6v1.752c.29-.67.7-1.263 1.2-1.752zM6 2v2h8V2H6zM2 2v2h2V2H2z" style="fill:#e0e0e0;fill-opacity:1"/><path fill="#e0e0e0" d="M6.466 10.988a4.518 4.518 0 1 1 4.518 4.518V14a3.012 3.012 0 1 0-3.012-3.012h1.506L7.218 14 4.96 10.988Z" style="stroke-width:.753078"/><path d="M6.466 10.988a4.518 4.518 0 1 1 4.518 4.518V14a3.012 3.012 0 1 0-3.012-3.012h1.506L7.218 14 4.96 10.988Z" style="fill:#e0e0e0"/></svg>