<svg xmlns="http://www.w3.org/2000/svg" width="16" height="16" viewBox="0 -960 320 320"><path fill="#e0e0e0" d="M68.758-665.276q-13.463 0-26.38-4.73Q29.46-674.736 20-685.29q13.1-4.002 19.103-12.323 6.004-8.322 6.004-22.803 0-16.967 11.916-28.58Q68.94-760.61 85.54-760.61q16.75 0 28.366 11.577 11.616 11.578 11.616 28.272 0 24.192-16.47 39.838-16.469 15.646-40.293 15.646zm85.872-88.42-34.567-36.386 139.016-139.36q5.161-5.094 11.449-5.276 6.287-.182 11.819 5.276l12.371 12.371q5.458 5.458 5.276 11.826-.182 6.368-5.276 11.462z"/></svg>