<svg height="16" viewBox="0 0 16 16" width="16" xmlns="http://www.w3.org/2000/svg"><g stroke-width="1" transform="matrix(1.2252173 0 0 1.1819424 -2.116814 -1.10388)"><a stroke-width="1"><path d="m8.3530224 8.9091972s1.0709757-.8075962 1.2540587-1.4117685c.0578953-.1910557.0006639-.7392303.1685607-1.0522806.4025672-.7506053 1.8782082-1.732501 1.8782082-1.732501s.977799-1.1000722.595598-1.7919313c-.324309-.587063-1.304817-1.1531596-1.975383-1.1404878-.7902685.0149334-1.2540587 1.4117688-1.2540587 1.4117688s-.1125271 1.7688897-.5612862 2.4928262c-.1871608.3019282-.6905103.5264511-.8270214.6721181-.4316869.4606407-.595598 1.7919311-.595598 1.7919311z" fill="#e0e0e0" fill-opacity=".797665"/></a><path d="m7.0844521 8.5897714-2.908202 5.0351566 1.1550879-.000671 2.6171851-4.5351573z" fill="#e0e0e0"/></g></svg>