<svg height="16" viewBox="0 0 16 16" width="16" xmlns="http://www.w3.org/2000/svg"><path d="m1.5273438 1.203125c-.1108001 0-.1992188.0884187-.1992188.1992188v13.1953122c0 .1108.0884187.199219.1992188.199219h12.9453122c.1108 0 .199219-.088419.199219-.199219v-13.1953122c0-.1108001-.088419-.1992188-.199219-.1992188zm6.4746093.796875c.0472581 0 .0932293.0017036.1386719.0058594s.0891854.0112196.1328125.0195312.0870946.0187826.1289063.03125c.0418116.0124674.0830507.0263456.1230468.0429688s.0790069.0358616.1171875.0566406.074963.0434246.1113281.0683594c.0363652.0249348.0728723.0509875.1074219.0800781.0345497.0290906.0668753.0605036.0996094.09375.0327328.0332464.0631557.0684478.0917969.1035156s.0555285.0705328.0800781.1074219.0479014.0745708.0683594.1132812c.020458.0387105.0383211.0786089.0546875.1191407s.0306939.0826469.0429687.125.0230668.0847318.03125.1289062c.0081832.0441745.0134866.0887699.0175781.1347657.0040916.0459957.0058594.0928078.0058594.140625 0 .0478171-.0017533.0947318-.0058594.140625-.004106.0458931-.009366.0907964-.0175781.1347656-.008212.0439692-.0189319.086861-.03125.1289062-.0123181.0420453-.0265446.0829256-.0429687.1230469s-.0361105.0809433-.0566406.1191406c-.0205302.0381973-.0417701.0750548-.0664063.1113281-.0246362.0362734-.0513359.0711194-.0800781.1054688s-.0609018.067184-.09375.0996094c-.0328483.0324254-.0649597.0634246-.0996094.0917968-.0346497.0283723-.0709708.053806-.1074219.078125-.036451.0243191-.0730757.0480935-.1113281.0683594s-.0771337.0384748-.1171875.0546875-.0811917.0308092-.1230469.0429688c-.0418552.0121595-.0852496.0211905-.1289062.0292969-.0436566.0081063-.0893077.0135249-.1347656.0175781-.045458.0040532-.0914126.0078125-.1386719.0078125-.0472582 0-.0932293-.0037065-.1386719-.0078125-.0454426-.0041061-.0891854-.0093661-.1328125-.0175781-.0436271-.0082121-.0870946-.018932-.1289063-.03125-.0418116-.0123181-.0830507-.0265447-.1230468-.0429688-.0399962-.0164241-.0790069-.0341573-.1171875-.0546875-.0381807-.0205302-.074963-.0437232-.1113281-.0683594-.0363652-.0246362-.0728723-.0513359-.1074219-.0800781-.0345497-.0287422-.0668753-.0589486-.0996094-.0917969-.0327328-.0328482-.0631557-.0669128-.0917969-.1015625-.0286412-.0346496-.0555285-.0709708-.0800781-.1074218-.0245496-.0364511-.0479014-.0730757-.0683594-.1113282-.020458-.0382524-.0383211-.0771336-.0546875-.1171875-.0163664-.0400538-.0306939-.0811916-.0429687-.1230469-.0122748-.0418552-.0230668-.0852496-.03125-.1289062s-.0134866-.0873545-.0175781-.1328125c-.0040916-.045458-.0058594-.0914125-.0058594-.1386719 0-.0477938.0017533-.0946662.0058594-.140625.004106-.0459588.009366-.0925949.0175781-.1367187.008212-.0441239.0189319-.0866174.03125-.1289063s.0265446-.084546.0429687-.125c.0164242-.0404539.0361105-.0785685.0566406-.1171875.0205302-.038619.0417701-.0764972.0664063-.1132812.0246362-.0367841.0513359-.0724728.0800781-.1074219.0287423-.0349491.0609017-.0704015.09375-.1035156.0328482-.0331142.0649598-.062822.0996094-.0917969s.0709709-.0571957.1074219-.0820313c.036451-.0248355.0730757-.047663.1113281-.0683593.0382524-.0206964.0771337-.0381305.1171875-.0546875.0400538-.0165571.0811917-.030551.1230469-.0429688s.0852496-.0229714.1289062-.03125c.0436566-.0082785.0893076-.015392.1347656-.0195312.0454581-.0041393.0914125-.0058594.1386719-.0058594zm0 4.2792969c.0362711 0 .0725299.0026911.1074219.0058593.034892.0031683.0680495.0073353.1015625.0136719s.0674755.0139327.0996094.0234375c.0321339.0095049.0629951.02053.09375.0332032.0307548.0126731.0604679.0271273.0898437.0429687s.0579408.0337246.0859375.0527344c.0279968.0190097.0554136.040322.0820313.0625s.0528863.0449662.078125.0703125c.0252373.025345.0482298.051422.0703125.078125s.043572.0539703.0625.0820312c.018928.028061.0350079.0565186.0507812.0859375.0157734.029419.0303501.06102.0429688.0917969s.0237391.0616151.0332031.09375.0171282.0641634.0234375.0976562c.0063093.0334929.0105172.0686648.0136719.1035157.0031546.0348508.0058594.0692599.0058594.1054687v5.6347654c0 .036209-.0026856.072571-.0058594.107422s-.0073243.06807-.0136719.101563-.0139161.067474-.0234375.099609-.0205079.062973-.0332031.09375-.0270998.060425-.0429688.089844c-.0158689.029419-.0336916.057876-.0527343.085937-.0190428.028061-.0402835.055329-.0625.082032-.0222166.026702-.0449222.05278-.0703126.078124-.0253904.025347-.0513743.050088-.078125.072266-.0267506.022178-.0539203.041537-.0820312.060547s-.0564663.036893-.0859375.052734c-.0294712.015842-.0609655.030296-.0917969.042969s-.0615583.023698-.09375.033203c-.0321916.009505-.0660575.017101-.0996094.023438-.0335518.006336-.0666503.012456-.1015624.015625-.0349122.003168-.0711496.003906-.1074219.003906-.0362711 0-.0725299-.000738-.1074219-.003906-.034892-.003169-.0680495-.009289-.1015625-.015625-.033513-.006337-.0674755-.013933-.0996094-.023438s-.0629951-.02053-.09375-.033203c-.0307548-.012673-.0604679-.027127-.0898437-.042969-.0293758-.015841-.0579408-.033724-.0859375-.052734-.0279968-.01901-.0554136-.038369-.0820313-.060547s-.0528863-.046919-.078125-.072266c-.025236-.025344-.0482309-.051422-.0703125-.078124-.0220815-.026703-.0435729-.053971-.0625-.082032-.018927-.028061-.0350087-.056518-.0507812-.085937-.0157726-.029419-.0303507-.059067-.0429688-.089844-.012618-.030777-.0237396-.061615-.0332031-.09375s-.0171285-.066116-.0234375-.099609-.0105174-.066712-.0136719-.101563-.0058594-.071213-.0058594-.107422v-5.6347654c0-.0362088.0026856-.0706179.0058594-.1054687.0031738-.0348509.0073243-.0700228.0136719-.1035157.0063476-.0334928.0139161-.0655213.0234375-.0976562s.0205079-.0629731.0332031-.09375.0270998-.0623779.0429688-.0917969c.0158689-.0294189.0336916-.0578765.0527343-.0859375.0190428-.0280609.0402835-.0553282.0625-.0820312.0222166-.026703.0449222-.05278.0703126-.078125.0253904-.0253463.0513743-.0481345.078125-.0703125.0267506-.022178.0539203-.0434903.0820312-.0625.0281109-.0190098.0564663-.036893.0859375-.0527344s.0609655-.0302956.0917969-.0429687c.0308314-.0126732.0615583-.0236983.09375-.0332032.0321916-.0095048.0660575-.0171009.0996094-.0234375.0335518-.0063366.0666503-.0105036.1015624-.0136719.0349122-.0031682.0711496-.0058593.1074219-.0058593z" fill="#e0e0e0"/></svg>