<svg height="16" viewBox="0 -960 320 320" width="16" xmlns="http://www.w3.org/2000/svg"><path d="m6.0078125 8.5566406c-.2232835 0-.3407311.0479567-.5019531.2050782-.155128.151177-.203125.260753-.203125.4921874 0 .2109721-.0220391.4176986-.0722656.6171876-.0502266.1994892-.1285429.3903732-.2421876.5664062.1371913.029694.2750962.048828.4160157.048828.2036722 0 .3701207-.02617.5195312-.083984s.2819783-.146002.4140625-.271485c.1275825-.121204.2174913-.2419188.2753906-.3828121.0578994-.1408933.0839844-.3027458.0839844-.5078125 0-.2265565-.0462766-.3358451-.1972656-.4863282-.1509955-.1504889-.263149-.1972656-.4921875-.1972656z" transform="matrix(20 0 0 20 0 -960)"/><g fill="#e0e0e0"><path d="m4.5742188 7.6132812c-.4964438-.1327204-1.0051022-.2822353-1.5546876-.4179687-.634722-.15676-2.0195312-.2597656-2.0195312-.2597656v7.5644531h14v-6.4609375s-2.18233-.7283137-3.646484-.8476563c-.320756-.0261447-.65093.0122441-.980469.046875l-1.3476564 1.3476563-.5449218.5429687-.3378907-.3554687c.033666.153318.0546875.3094154.0546875.4667969 0 .3752692-.0732511.7430949-.2128906 1.0800776-.1396395.336984-.3457647.644296-.6132812.898438-.2630063.249862-.5703867.440468-.9042969.570312-.3339103.129845-.6946433.197266-1.0625.197266-.4108089 0-.8181489-.072436-1.2070313-.214844-.2117285-.077534-.4120261-.181822-.5976562-.308593-.1856302-.126771-.3563-.276318-.5078125-.445313l-.7851563-.875 1.1230469-.3437499c.2059556-.062931.2728496-.128056.2988281-.1640625.023235-.0322035.0742188-.1370898.0742188-.3808594 0-.2913054.0601096-.581805.171875-.8496093s.2760654-.5137921.484375-.7167969c.0330582-.0322174.0802388-.0442304.1152344-.0742188z" transform="matrix(20 0 0 20 0 -960)"/><path d="m108.0842-735.25594q-9.689155 0-18.98551-3.40429-9.296355-3.4043-16.104944-10.9985 9.42728-2.88057 13.748119-8.86925 4.320845-5.98869 4.320845-16.41108 0-12.21069 8.576214-20.5685 8.576216-8.35808 20.522156-8.35808 12.05489 0 20.4148 8.33189 8.35991 8.33188 8.35991 20.34697 0 17.4101-11.85298 28.67048-11.85273 11.26036-28.99861 11.26036zm61.80112-63.63419-24.87757-26.18691 100.04788-100.29587q3.71488-3.66616 8.23972-3.79715 4.52483-.13091 8.50603 3.79715l8.90355 8.90355q3.92804 3.92803 3.7971 8.51074-.13093 4.58271-3.7971 8.24888z" stroke-width="1"/></g></svg>