<svg height="16" viewBox="0 -960 320 320" width="16" xmlns="http://www.w3.org/2000/svg"><path d="m68.7579-665.27602q-13.463 0-26.38021-4.73024-12.91721-4.73025-22.37769-15.28233 13.09913-4.00252 19.1029-12.32375 6.00378-8.32123 6.00378-22.80306 0-16.96666 11.91658-28.57977 11.91658-11.61348 28.51537-11.61348 16.75017 0 28.3662 11.57709 11.61603 11.57709 11.61603 28.27195 0 24.1912-16.46963 39.8374-16.46926 15.64619-40.29333 15.64619zm85.87216-88.4192-34.56718-36.3865 139.01572-139.3603q5.16179-5.0941 11.44902-5.2761 6.28722-.1819 11.81906 5.2761l12.37141 12.37141q5.45798 5.45797 5.27604 11.82561-.18193 6.36764-5.27604 11.46175z" fill="#e0e0e0" stroke-width="1"/></svg>