<?xml version="1.0" encoding="UTF-8" standalone="no"?>
<svg
   height="196"
   width="196"
   version="1.1"
   id="svg7"
   sodipodi:docname="logo.svg"
   inkscape:version="1.3 (0e150ed6c4, 2023-07-21)"
   xmlns:inkscape="http://www.inkscape.org/namespaces/inkscape"
   xmlns:sodipodi="http://sodipodi.sourceforge.net/DTD/sodipodi-0.dtd"
   xmlns:xlink="http://www.w3.org/1999/xlink"
   xmlns="http://www.w3.org/2000/svg"
   xmlns:svg="http://www.w3.org/2000/svg">
  <defs
     id="defs7">
    <radialGradient
       inkscape:collect="always"
       xlink:href="#linearGradient2"
       id="radialGradient27"
       gradientUnits="userSpaceOnUse"
       gradientTransform="matrix(1.4235886,0.06412925,-0.03278049,0.72768539,-90.482388,19.08552)"
       cx="223.97531"
       cy="133.95163"
       fx="223.97531"
       fy="133.95163"
       r="44.334244" />
    <linearGradient
       id="linearGradient2"
       inkscape:collect="always">
      <stop
         style="stop-color:#000000;stop-opacity:0.5660066;"
         offset="0"
         id="stop1" />
      <stop
         style="stop-color:#000000;stop-opacity:0;"
         offset="1"
         id="stop2" />
    </linearGradient>
    <clipPath
       clipPathUnits="userSpaceOnUse"
       id="clipPath18">
      <path
         id="path19"
         style="fill:#2cdbff;fill-opacity:1;stroke:none;stroke-width:10.5833;stroke-linecap:round;stroke-linejoin:round;paint-order:markers stroke fill"
         d="m 364.85578,109.42881 c -33.42868,-2e-4 -60.52808,28.84428 -60.52809,64.42582 0.0171,6.41766 0.93504,12.79658 2.72334,18.92548 h 17.24495 v 23.30899 h 20.22047 v -22.85309 h 19.72799 v 23.2332 h 20.51503 v -23.6891 h 20.71244 V 169.205 h 19.73521 c -2.2897,-33.68166 -28.62486,-59.76584 -60.35134,-59.77619 z m -40.16189,59.89016 h 19.42982 v 23.42117 h -19.42982 z m 60.36323,46.63706 v 23.34896 h 20.22048 v -23.34896 z m -40.74273,11.33585 v 23.34956 h 20.22048 v -23.34956 z"
         sodipodi:nodetypes="cccccccccccccccccccccccccccccc" />
    </clipPath>
    <clipPath
       clipPathUnits="userSpaceOnUse"
       id="clipPath40">
      <g
         id="g41">
        <path
           id="path41"
           style="fill:#2cdbff;fill-opacity:1;stroke:none;stroke-width:7.23088;stroke-linecap:round;stroke-linejoin:round;paint-order:markers stroke fill"
           d="m 213.44384,34.977199 c -24.55914,-1.27e-4 -44.46832,18.327618 -44.46833,40.936083 0.0126,4.077773 0.68695,8.130931 2.00076,12.025226 h 12.6694 v 14.810502 h 14.85542 V 88.228186 h 14.49361 v 14.762344 h 15.07183 V 87.938508 h 15.21686 V 72.958913 h 14.49892 C 256.10013,51.55763 236.75241,34.983775 213.44384,34.977199 Z M 183.938,73.03133 h 14.27455 V 87.913111 H 183.938 Z m 44.34721,29.63313 v 14.8359 h 14.85543 v -14.8359 z m -29.93257,7.20278 v 14.83628 h 14.85543 v -14.83628 z"
           sodipodi:nodetypes="cccccccccccccccccccccccccccccc" />
      </g>
    </clipPath>
    <clipPath
       clipPathUnits="userSpaceOnUse"
       id="clipPath41">
      <g
         id="g42">
        <path
           id="path42"
           style="fill:#2cdbff;fill-opacity:1;stroke:none;stroke-width:7.23088;stroke-linecap:round;stroke-linejoin:round;paint-order:markers stroke fill"
           d="m 213.44384,34.977199 c -24.55914,-1.27e-4 -44.46832,18.327618 -44.46833,40.936083 0.0126,4.077773 0.68695,8.130931 2.00076,12.025226 h 12.6694 v 14.810502 h 14.85542 V 88.228186 h 14.49361 v 14.762344 h 15.07183 V 87.938508 h 15.21686 V 72.958913 h 14.49892 C 256.10013,51.55763 236.75241,34.983775 213.44384,34.977199 Z M 183.938,73.03133 h 14.27455 V 87.913111 H 183.938 Z m 44.34721,29.63313 v 14.8359 h 14.85543 v -14.8359 z m -29.93257,7.20278 v 14.83628 h 14.85543 v -14.83628 z"
           sodipodi:nodetypes="cccccccccccccccccccccccccccccc" />
      </g>
    </clipPath>
  </defs>
  <sodipodi:namedview
     id="namedview7"
     pagecolor="#ffffff"
     bordercolor="#666666"
     borderopacity="1.0"
     inkscape:showpageshadow="2"
     inkscape:pageopacity="0.0"
     inkscape:pagecheckerboard="0"
     inkscape:deskcolor="#d1d1d1"
     inkscape:zoom="2.8284271"
     inkscape:cx="127.10244"
     inkscape:cy="80.433396"
     inkscape:window-width="2560"
     inkscape:window-height="1377"
     inkscape:window-x="-8"
     inkscape:window-y="-8"
     inkscape:window-maximized="1"
     inkscape:current-layer="svg7" />
  <g
     id="g43"
     transform="translate(34.490495,0.46382817)">
    <rect
       style="fill:#ffffff;fill-opacity:1;stroke:none;stroke-width:18.8168;stroke-linecap:round;stroke-linejoin:round;stroke-opacity:1;paint-order:markers stroke fill"
       id="rect42"
       width="25.390783"
       height="25.991241"
       x="16.650583"
       y="108.03185" />
    <path
       id="path30"
       style="fill:#ffffff;fill-opacity:1;stroke:#ffffff;stroke-width:8.92175;stroke-linecap:round;stroke-linejoin:round;stroke-opacity:1;paint-order:markers stroke fill"
       d="m 73.879747,4.8825065 -4.493363,9.7231945 a 43.802986,38.902181 0 0 0 -6.037865,-0.375689 43.802986,38.902181 0 0 0 -4.830286,0.307111 L 53.637248,5.4341136 40.473213,9.7426129 41.409452,19.56122 a 43.802986,38.902181 0 0 0 -10.468607,7.475023 l -8.05644,-4.809418 -8.849576,11.70898 7.000943,9.395212 a 43.802986,38.902181 0 0 0 -1.490827,9.800718 43.802986,38.902181 0 0 0 1.153904,8.426172 A 13.606168,13.588287 0 0 0 13.757536,59.542305 13.606168,13.588287 0 0 0 0.15221858,73.132712 13.606168,13.588287 0 0 0 5.2836589,83.726551 c -6.06659587,9.356502 -9.5621819,20.290019 -9.5621819,31.978309 0.019235,6.22516 1.0505215,12.41302 3.0561971,18.35808 H 18.119702 v 22.60994 h 22.678511 v -22.16865 h 22.123923 v 22.53836 h 23.00948 v -22.97965 h 23.230104 v -22.86933 h 22.13585 c -0.79841,-10.15752 -4.20887,-19.600775 -9.592,-27.795041 a 13.606168,13.588287 0 0 0 5.38487,-10.784665 13.606168,13.588287 0 0 0 -13.60829,-13.587427 13.606168,13.588287 0 0 0 -7.43328,2.322713 43.802986,38.902181 0 0 0 1.10322,-8.217455 43.802986,38.902181 0 0 0 -1.07638,-8.518604 l 7.40644,-10.677326 -8.95989,-11.378016 -8.48879,4.690152 A 43.802986,38.902181 0 0 0 86.244678,19.978653 L 86.823126,9.7426129 Z M 18.563976,111.30393 h 21.792955 v 22.72025 H 18.563976 Z m 67.701586,45.24073 v 22.64869 h 22.678498 v -22.64869 z m -45.693944,10.99338 v 22.65168 h 22.678495 v -22.65168 z" />
    <g
       id="g2"
       style="stroke-width:0.752131"
       transform="matrix(1.1215585,0,0,1.1200846,-243.38457,-106.26835)">
      <g
         id="g12"
         transform="translate(50.346703,28.910594)"
         style="stroke-width:0.752131">
        <path
           id="path4"
           style="fill:#478cbf;fill-opacity:1;stroke:none;stroke-width:7.96002;stroke-linecap:round;stroke-linejoin:round;paint-order:markers stroke fill"
           d="m 232.47092,70.323357 -4.00699,8.680608 a 39.055462,34.731468 0 0 0 -5.38365,-0.334864 39.055462,34.731468 0 0 0 -4.30517,0.273885 l -4.35374,-8.126635 -11.73675,3.846276 0.83458,8.765357 a 39.055462,34.731468 0 0 0 -9.3338,6.675562 l -7.18302,-4.295345 -7.89048,10.454659 6.242,8.3876 a 39.055462,34.731468 0 0 0 -1.3286,8.74986 39.055462,34.731468 0 0 0 39.05498,34.73173 39.055462,34.731468 0 0 0 39.05549,-34.73173 39.055462,34.731468 0 0 0 -0.95859,-7.60626 l 6.60321,-9.5312 -7.98918,-10.15907 -7.56801,4.186824 a 39.055462,34.731468 0 0 0 -8.72866,-6.487976 l 0.51573,-9.140011 z" />
        <rect
           style="fill:#ffffff;fill-opacity:1;stroke:none;stroke-width:7.96002;stroke-linecap:round;stroke-linejoin:round;paint-order:markers stroke fill"
           id="rect4"
           width="6.1150565"
           height="13.709562"
           x="219.0571"
           y="109.57787"
           rx="3.0575283"
           ry="3.0575283" />
        <circle
           style="fill:#ffffff;fill-opacity:1;stroke:none;stroke-width:7.96002;stroke-linecap:round;stroke-linejoin:round;paint-order:markers stroke fill"
           id="circle4"
           cx="204.85976"
           cy="107.69914"
           r="10.205933" />
        <circle
           style="fill:#000000;fill-opacity:1;stroke:none;stroke-width:7.96002;stroke-linecap:round;stroke-linejoin:round;paint-order:markers stroke fill"
           id="circle5"
           cx="205.32376"
           cy="110.43141"
           r="7.4797726" />
        <circle
           style="fill:#ffffff;fill-opacity:1;stroke:none;stroke-width:7.96002;stroke-linecap:round;stroke-linejoin:round;paint-order:markers stroke fill"
           id="circle6"
           cx="240.64919"
           cy="107.69914"
           r="10.205933" />
        <circle
           style="fill:#000000;fill-opacity:1;stroke:none;stroke-width:7.96002;stroke-linecap:round;stroke-linejoin:round;paint-order:markers stroke fill"
           id="circle11"
           cx="240.80605"
           cy="110.13552"
           r="7.4797726" />
        <path
           id="path11"
           style="fill:none;fill-opacity:1;stroke:#ffffff;stroke-width:1.99001;stroke-linecap:round;stroke-linejoin:round;stroke-dasharray:none;stroke-opacity:0.0573123;paint-order:markers stroke fill"
           d="m 230.38672,79.894531 c -0.77458,1.378336 -2.56625,1.298703 -3.9082,1.035157 -2.63715,-0.249209 -5.27159,-0.04237 -7.88868,0.08203 -1.60424,-0.273056 -2.12466,-1.976794 -2.82313,-3.203784 -0.79641,-1.473903 -1.58331,-2.953103 -2.37609,-4.429029 -2.81184,0.920573 -5.62369,1.841146 -8.43554,2.761719 0.20006,2.535763 0.59091,5.069207 0.60937,7.611328 -0.45142,1.728127 -2.38666,2.108432 -3.65706,3.037748 -2.44449,1.42205 -4.52995,3.357338 -6.71208,5.128268 -1.43325,0.676879 -2.80597,-0.411137 -3.97462,-1.123372 -1.22795,-0.728433 -2.45372,-1.459999 -3.67772,-2.194988 -1.93034,2.557292 -3.86068,5.114584 -5.79102,7.671875 1.83666,2.532466 3.83547,4.963677 5.51953,7.597657 0.44065,1.72816 -0.63059,3.33327 -0.73248,5.03552 -1.1983,7.15686 0.55693,14.79747 4.61346,20.84147 5.25823,8.0384 14.02171,13.41957 23.35008,15.35308 9.01928,1.91185 18.54459,0.79227 26.82589,-3.34853 7.59342,-3.77281 13.94625,-10.27996 16.88446,-18.29951 2.01855,-5.33762 2.29807,-11.40972 0.95698,-16.99847 -0.32466,-1.73397 1.16891,-2.97815 1.97391,-4.32645 1.33553,-1.92815 2.67107,-3.856302 4.00661,-5.784454 -1.9694,-2.505859 -3.9388,-5.011719 -5.9082,-7.517578 -2.15188,1.152515 -4.23562,2.449051 -6.45508,3.464843 -1.52271,0.335083 -2.58957,-1.010176 -3.5918,-1.908203 -2.08502,-1.935537 -4.65917,-3.45741 -7.08008,-5.029901 -1.20008,-1.278469 -0.52483,-3.114716 -0.56689,-4.658064 0.0861,-1.531095 0.1722,-3.06219 0.2583,-4.593285 -2.74609,-1.031901 -5.49219,-2.063802 -8.23828,-3.095703 -1.06055,2.296875 -2.12109,4.59375 -3.18164,6.890626 z" />
        <path
           id="path12"
           style="fill:url(#radialGradient27);fill-opacity:1;stroke:#0f2d44;stroke-width:1.99001;stroke-linecap:round;stroke-linejoin:round;stroke-dasharray:none;stroke-opacity:1;paint-order:markers stroke fill"
           d="m 232.47092,70.323357 -4.00699,8.680608 a 39.055462,34.731468 0 0 0 -5.38365,-0.334864 39.055462,34.731468 0 0 0 -4.30517,0.273885 l -4.35374,-8.126635 -11.73675,3.846276 0.83458,8.765357 a 39.055462,34.731468 0 0 0 -9.3338,6.675562 l -7.18302,-4.295345 -7.89048,10.454659 6.242,8.3876 a 39.055462,34.731468 0 0 0 -1.3286,8.74986 39.055462,34.731468 0 0 0 39.05498,34.73173 39.055462,34.731468 0 0 0 39.05549,-34.73173 39.055462,34.731468 0 0 0 -0.95859,-7.60626 l 6.60321,-9.5312 -7.98918,-10.15907 -7.56801,4.186824 a 39.055462,34.731468 0 0 0 -8.72866,-6.487976 l 0.51573,-9.140011 z" />
      </g>
      <path
         id="path15"
         style="fill:#01b0d5;fill-opacity:1;stroke:none;stroke-width:7.96002;stroke-linecap:round;stroke-linejoin:round;paint-order:markers stroke fill"
         d="m 273.65952,142.34889 c -33.42868,-1.7e-4 -60.52808,24.97948 -60.52809,55.79351 0.0171,5.55777 0.93504,11.08199 2.72334,16.38969 h 17.24495 v 20.18585 h 20.22047 V 214.9269 h 19.72799 v 20.12022 h 20.51503 v -20.51503 h 20.71243 v -20.41632 h 19.73523 C 331.72115,164.94706 305.386,142.35786 273.65952,142.34889 Z m -40.16189,51.86558 h 19.42982 v 20.283 h -19.42982 z m 60.36323,40.38823 v 20.22047 h 20.22048 V 234.6027 Z m -40.74273,9.81698 v 20.22098 h 20.22048 v -20.22098 z"
         sodipodi:nodetypes="cccccccccccccccccccccccccccccc" />
      <g
         id="g17"
         transform="matrix(1,0,0,0.8660115,-91.196257,47.58229)"
         style="stroke-width:0.808222"
         clip-path="url(#clipPath18)">
        <path
           id="path16-7"
           style="fill:#52864d;fill-opacity:1;stroke:none;stroke-width:3.05852;stroke-linecap:butt;stroke-linejoin:round;stroke-dasharray:none;stroke-opacity:0.785;paint-order:markers stroke fill"
           d="m 393.61891,138.0333 c -1.59035,0.10921 -3.21876,-0.0791 -4.77505,0.35786 -3.17727,0.70963 -5.59006,3.07269 -7.00983,5.72197 -1.25135,2.17195 -1.99518,4.59529 -3.31613,6.716 -2.72713,-0.2485 -5.77773,-0.57446 -8.18857,0.9141 -1.96309,1.18837 -2.59276,3.60665 -2.02843,5.63809 0.18912,0.83221 0.52392,1.62673 0.87243,2.41032 -3.13417,-0.58174 -6.45541,-1.62291 -9.61446,-0.59296 -2.86615,1.01945 -4.40973,3.67279 -6.07491,5.891 -0.51815,0.67346 -1.01003,1.37984 -1.68025,1.93375 -0.56218,-0.34631 -0.65622,-0.92971 -0.76953,-1.49981 -0.51941,-2.05401 -2.166,-4.128 -4.58286,-4.30135 -1.99849,-0.18603 -3.80412,1.03316 -4.87763,2.50694 -1.18132,0.32425 -2.27461,-0.46547 -2.7669,-1.41652 -1.39063,-2.4471 -1.53558,-5.34458 -1.2384,-8.03917 -0.23444,-0.64037 -0.30353,-1.40011 -0.63916,-1.96742 -0.88755,-0.37833 -1.65975,-1.14655 -2.70359,-1.01421 -5.17595,-0.18163 -10.26998,2.04197 -13.6679,5.64275 -3.13029,3.22484 -5.01116,7.37769 -5.75167,11.64209 -1.05656,3.10105 -0.50303,6.75524 1.91683,9.1882 2.845,2.95625 7.38776,4.03191 11.51684,3.60172 0.49442,0.23466 0.1506,0.91202 0.15569,1.30774 -0.60991,2.79816 -1.8678,5.6615 -1.03944,8.54274 0.10337,0.62362 5.74686,1.33923 5.88285,1.90143 -1.41905,0.86542 -3.25828,2.06333 -2.42816,3.80221 1.5989,1.182 5.04708,1.05147 3.91333,3.27943 0.51807,1.38481 -2.14573,-0.0164 -2.22985,0.94838 -0.0273,0.70757 -0.49356,2.00417 -0.33407,2.68274 0.47204,0.98642 2.05868,1.53596 2.32139,2.618 1.09191,3.4976 -5.99996,6.52576 -3.8922,9.72044 1.14082,1.79799 3.03314,3.11911 5.14116,3.7803 0.98537,2.34 3.21163,4.47891 6.04966,4.56121 2.93392,0.138 5.49258,-2.03083 6.22726,-4.5826 0.61694,-1.85546 0.36578,-3.84759 -0.21761,-5.67649 -0.32467,-2.31686 -0.52757,-5.03104 1.26164,-6.90787 0.77088,-0.838 1.85571,-1.34036 2.86227,-1.86198 0.51725,-0.68931 1.47364,-1.17275 1.55679,-2.06803 0.72416,-0.38998 1.54908,-0.57173 2.32649,-0.84647 0.21184,0.0702 0.8965,-0.40283 1.37352,-0.53195 2.00472,-0.82242 3.41324,-2.82102 3.15674,-4.88524 -0.066,-1.24839 -0.79556,-2.34776 -0.86326,-3.59558 -0.39452,-2.67389 -0.9481,-5.53591 0.17192,-8.12323 0.82886,-1.84359 2.86712,-2.76387 4.76569,-3.41298 4.04018,-1.52938 8.23126,-2.91538 12.61359,-3.20778 -0.76403,2.908 0.51587,5.78078 1.59014,8.46152 0.5893,1.50502 1.13139,3.237 0.35246,4.77462 -0.0285,0.91789 -0.21594,1.86233 0.25657,2.71552 0.78782,2.15614 2.6504,4.21604 5.21802,4.4472 2.97401,0.29461 5.59248,-1.72382 6.99743,-4.00272 1.51833,-2.38439 2.08866,-5.40768 1.04134,-8.05189 1.12959,-2.04854 1.4378,-4.7289 -0.12799,-6.66254 -0.0889,-0.35773 -1.25517,-0.90897 -0.42155,-0.9294 2.89378,-0.56158 5.43945,-2.59356 6.22224,-5.28354 0.5292,-1.4348 0.35322,-2.96951 0.71954,-4.43109 0.39171,-2.13271 0.47621,-4.3531 1.34536,-6.3819 1.37218,0.88742 2.62977,1.937 4.10629,2.68769 2.39426,1.26911 5.07181,2.57741 7.91587,2.25811 2.12327,-0.23222 3.80185,-2.03384 3.84252,-4.00979 0.164,-1.51177 -0.53905,-2.92751 -0.63621,-4.41671 -0.76741,-4.69122 -3.909,-8.67117 -7.44319,-11.9357 -2.72996,-2.61402 -5.79825,-4.9303 -8.26225,-7.77638 -1.54783,-1.57001 -3.84042,-2.36794 -6.11283,-2.24077 z m -17.46415,65.54634 c -1.16728,-0.063 -1.94207,0.8342 -2.85893,1.35688 -0.40851,0.93634 -0.95005,1.89702 -1.99138,2.33837 -2.12543,1.05115 -4.65704,1.66581 -6.23949,3.45615 -0.34704,0.88581 -0.99177,1.73034 -0.76067,2.71505 0.14554,2.69893 2.23711,5.15116 5.01876,5.90903 3.84385,1.16922 8.69445,-0.20766 10.60455,-3.66412 0.93008,-1.68067 0.93795,-3.70949 0.25318,-5.46722 0.26519,-1.79234 0.65192,-3.89789 -0.73826,-5.39448 -0.79173,-0.89243 -2.06183,-1.32786 -3.28776,-1.24966 z"
           sodipodi:nodetypes="cccccccccccccccccccccccccccccccccccccccccccccccccccccccccccccccccccccccc" />
        <path
           style="fill:#ffffff;fill-opacity:1;stroke:none;stroke-width:0.213842px;stroke-linecap:butt;stroke-linejoin:miter;stroke-opacity:1"
           d="m 325.9315,113.75021 c -0.57337,4.34616 -2.22888,9.3337 0.88157,13.3104 2.69975,2.58095 6.64898,2.81837 10.00086,2.85922 4.23943,-0.0125 4.02628,5.48623 6.4429,8.00751 2.73514,5.45306 8.60502,1.14317 9.37723,-3.12869 2.21451,-2.51058 6.57722,-0.0634 8.80056,1.89315 2.09485,1.68123 6.27929,7.78301 6.71408,3.45688 -0.27672,-3.24022 1.5379,-5.27198 4.60141,-4.59146 1.4757,-2.7685 0.10568,-7.50714 4.43482,-7.84902 4.21586,-1.33361 6.84049,-5.10969 8.4502,-9.05314 2.04797,-3.92668 1.37511,-8.25657 -0.17798,-12.33648 -0.49278,-4.30913 -4.46373,-7.063438 -8.42366,-7.785151 -7.20162,-1.653424 -14.69602,-2.808525 -21.86416,-1.25516 -5.94236,0.85607 -11.17324,3.827661 -16.46281,6.343271 -4.88338,1.15977 -10.52119,2.68573 -12.49065,7.86462 -0.27056,0.70721 -0.41714,1.48971 -0.28437,2.26405 z"
           id="path17" />
      </g>
      <ellipse
         style="fill:#000000;fill-opacity:0.0988142;stroke:none;stroke-width:7.96002;stroke-linecap:round;stroke-linejoin:round;paint-order:markers stroke fill"
         id="ellipse21"
         cx="231.50647"
         cy="165.75674"
         rx="12.225028"
         ry="11.383128" />
      <ellipse
         style="fill:#000000;fill-opacity:0.0988142;stroke:none;stroke-width:7.96002;stroke-linecap:round;stroke-linejoin:round;paint-order:markers stroke fill"
         id="ellipse22"
         cx="316.48712"
         cy="164.88011"
         rx="12.225028"
         ry="11.383128" />
      <path
         id="path25"
         style="fill:none;fill-opacity:1;stroke:#ffffff;stroke-width:1.99001;stroke-linecap:round;stroke-linejoin:round;stroke-dasharray:none;stroke-opacity:0.0671937;paint-order:markers stroke fill"
         d="m 331.50583,192.10596 c -2.10431,-11.48435 -7.92664,-22.20129 -16.38819,-30.26336 -8.59373,-8.28724 -19.70541,-13.74534 -31.50044,-15.65415 -3.78692,-0.6169 -7.56191,-0.86992 -11.38676,-0.77586 -11.23102,0.3069 -22.46266,3.79557 -31.80388,10.14226 -8.15508,5.47694 -15.42478,12.7263 -19.74898,21.49603 -2.56955,5.17005 -3.90727,11.25635 -4.7362,16.88516 -0.85267,5.86903 0.40748,12.39815 1.46602,18.25964"
         sodipodi:nodetypes="cccccccc" />
      <path
         id="path31"
         style="fill:none;fill-opacity:1;stroke:#084551;stroke-width:1.99001;stroke-linecap:round;stroke-linejoin:round;stroke-dasharray:none;stroke-opacity:1;paint-order:markers stroke fill"
         d="m 273.65952,142.38196 c -33.42868,-1.7e-4 -60.52808,24.97948 -60.52809,55.79351 0.0171,5.55777 0.93504,11.08199 2.72334,16.38969 h 17.24495 v 20.18585 h 20.22047 v -19.79104 h 19.72799 v 20.12022 h 20.51503 v -20.51503 h 20.71243 v -20.41632 h 19.73523 c -2.28972,-29.1687 -28.62487,-51.7579 -60.35135,-51.76688 z m -40.16189,51.86558 h 19.42982 v 20.283 h -19.42982 z m 60.36323,40.38823 v 20.22047 h 20.22048 v -20.22047 z m -40.74273,9.81698 v 20.22098 h 20.22048 v -20.22098 z"
         sodipodi:nodetypes="cccccccccccccccccccccccccccccc" />
      <circle
         style="fill:#478cbf;fill-opacity:1;stroke:#0f2d44;stroke-width:3.98002;stroke-linecap:round;stroke-linejoin:round;stroke-dasharray:none;stroke-opacity:1;paint-order:markers stroke fill"
         id="circle25"
         cx="229.21219"
         cy="160.1662"
         r="12.131483" />
      <circle
         style="fill:#478cbf;fill-opacity:1;stroke:#0f2d44;stroke-width:3.98002;stroke-linecap:round;stroke-linejoin:round;stroke-dasharray:none;stroke-opacity:1;paint-order:markers stroke fill"
         id="circle26"
         cx="318.12833"
         cy="159.70511"
         r="12.131483" />
    </g>
  </g>
  <ellipse
     style="fill:#5192c3;fill-opacity:1;stroke:none;stroke-width:10.8012;stroke-linecap:round;stroke-linejoin:round;stroke-opacity:1;paint-order:markers stroke fill"
     id="path43"
     cx="46.138718"
     cy="65.672539"
     rx="6.1871843"
     ry="4.3310289" />
  <ellipse
     style="fill:#5192c3;fill-opacity:1;stroke:none;stroke-width:10.8012;stroke-linecap:round;stroke-linejoin:round;stroke-opacity:1;paint-order:markers stroke fill"
     id="ellipse43"
     cx="148.7576"
     cy="64.965439"
     rx="6.1871843"
     ry="4.3310289" />
</svg>
