<svg height="16" viewBox="0 0 16 16" width="16" xmlns="http://www.w3.org/2000/svg"><g fill="#45ffa2"><path d="m.99999989 9.1907943 1.54682931 3.1296317-.071945.755429.9712648-.629524.7554282-.01799s.3698412-.80478.7374418-.98925c.8573745-.43025 1.9891081-.361102 2.8778218 0 .5813372.236209.7914624 1.025043 1.3489793 1.313005.2653825.137072.8813319.161878.8813319.161878l.3957 1.510857.737442.01798c.415637-.102214.813405-.311643 1.187102-.665496l1.456897-2.643999.19785-1.3849522-1.205088-1.9964804-.971265-.3597278-.251809-1.5108563-.791401-.7014691c-.342469.2503533-.670657.5292694-.9712639.8633465l-1.3235586-.5090952-2.111237.2798026-1.4244492-.0254365-1.551632 2.1875468z"/><g stroke-linejoin="bevel" stroke-width=".874847" transform="matrix(1.1430568 0 0 1.1430568 -1.895808 -1.079432)"><path d="m12.205841 2.7816412v.3226703l1.513213.8789987.311544.8233657.267038-.066759-.367177-1.4019472z"/><path d="m12.359375 2.3066406-.654297.4746094v.3222656l.25.4335938 1.359375.7890625.248047.6582031.589844.3066406.265625-.0664062.363281-.6113282-.367187-1.4023437c-.040596-.1550435-.220053-.2330729-.330079-.3496094z"/></g></g></svg>